<?xml version="1.0" encoding="UTF-8"?>
<svg version="1.1" xmlns="http://www.w3.org/2000/svg" width="810" height="811">
<path d="M0 0 C1.08362771 -0.00350607 2.16725543 -0.00701215 3.28372034 -0.01062447 C6.90993942 -0.01991837 10.53599719 -0.01502025 14.16222286 -0.01015663 C16.7903656 -0.01389391 19.41849646 -0.01841619 22.04663509 -0.02388728 C27.75839954 -0.0341732 33.47013009 -0.03703352 39.18190289 -0.03497505 C47.67594931 -0.03192138 56.16995831 -0.04025719 64.66399745 -0.0507243 C80.71908775 -0.0700563 96.77416527 -0.07569224 112.82926584 -0.07683842 C125.2302006 -0.07775793 137.63113035 -0.08187683 150.03206348 -0.08823967 C153.60325572 -0.0900348 157.17444797 -0.09181443 160.74564022 -0.09358943 C161.63348511 -0.09403152 162.52132999 -0.09447362 163.43607927 -0.09492911 C188.40680027 -0.10723606 213.37751954 -0.1151304 238.34824371 -0.11424255 C239.28951969 -0.1142114 240.23079566 -0.11418024 241.20059514 -0.11414814 C245.97122996 -0.11398193 250.74186477 -0.11378384 255.51249958 -0.11357872 C256.93366221 -0.11351889 256.93366221 -0.11351889 258.3835352 -0.11345784 C260.29949375 -0.11337697 262.2154523 -0.11329337 264.13141085 -0.11320706 C293.93328124 -0.11198185 323.7351061 -0.12698978 353.53696346 -0.15435219 C387.03041365 -0.18509144 420.52383393 -0.20228355 454.01729912 -0.20042574 C457.59069184 -0.20027649 461.16408457 -0.20017907 464.7374773 -0.20011711 C465.61731611 -0.2000938 466.49715493 -0.20007049 467.40365552 -0.20004648 C481.54624691 -0.199985 495.6887987 -0.21274233 509.83137832 -0.22998164 C524.0526236 -0.24695793 538.27381111 -0.24889637 552.49506093 -0.235763 C560.93660706 -0.22838696 569.37797737 -0.23199137 577.81950478 -0.25164768 C583.4677472 -0.26368501 589.11586286 -0.26101514 594.76409957 -0.24670668 C597.97611201 -0.23897504 601.18772041 -0.23954191 604.39972097 -0.25362138 C636.44781365 -0.38474878 662.15182302 7.97836042 685.54062557 30.63226891 C702.85687763 48.38629138 713.21303613 72.59863367 713.11039448 97.4197607 C713.11390055 98.50507679 713.11740663 99.59039288 713.12101895 100.70859733 C713.13031303 104.34055973 713.12541467 107.97236108 713.12055111 111.60433006 C713.12428837 114.2365976 713.12881066 116.86885327 713.13428175 119.50111669 C713.14456777 125.22189351 713.14742798 130.94263649 713.14536953 136.66342163 C713.14231588 145.17086928 713.15065162 153.67827958 713.16111878 162.18571996 C713.18045087 178.26613172 713.18608672 194.34653072 713.1872329 210.42695273 C713.18815241 222.84743363 713.19227129 235.26790954 713.19863415 247.68838882 C713.20042928 251.26519805 713.2022089 254.84200728 713.2039839 258.41881651 C713.20464705 259.75267815 713.20464705 259.75267815 713.20532359 261.1134865 C713.21763055 286.12350335 713.22552487 311.13351847 713.22463703 336.14353848 C713.22460587 337.08629731 713.22457472 338.02905614 713.22454262 339.00038342 C713.2243764 343.77853478 713.22417832 348.55668614 713.2239732 353.3348375 C713.22391336 354.75823954 713.22391336 354.75823954 713.22385232 356.21039718 C713.22377145 358.12937482 713.22368785 360.04835246 713.22360154 361.9673301 C713.22237633 391.81619312 713.23738428 421.66501069 713.26474667 451.5138607 C713.29548582 485.0600486 713.31267803 518.60620663 713.31082022 552.15240949 C713.31067096 555.73141921 713.31057355 559.31042892 713.31051159 562.88943863 C713.31047663 564.21127157 713.31047663 564.21127157 713.31044096 565.55980821 C713.31037948 579.72471557 713.32313688 593.88958339 713.34037612 608.054479 C713.35735229 622.2981284 713.35929094 636.54172012 713.34615748 650.78537405 C713.33878137 659.2402508 713.34238607 667.69495198 713.36204216 676.14981003 C713.37407929 681.80693826 713.37140983 687.46393992 713.35710116 693.12106245 C713.34936935 696.33814989 713.34993674 699.5548339 713.36401586 702.77190948 C713.49499272 734.83451747 705.14377744 760.54384201 682.47812557 783.94476891 C664.73046092 801.25481991 640.51996923 811.61731471 615.70625114 811.51453781 C614.62262343 811.51804389 613.53899572 811.52154996 612.4225308 811.52516228 C608.79631172 811.53445618 605.17025395 811.52955806 601.54402828 811.52469444 C598.91588554 811.52843172 596.28775468 811.53295401 593.65961605 811.53842509 C587.94785161 811.54871101 582.23612105 811.55157133 576.52434826 811.54951286 C568.03030184 811.54645919 559.53629283 811.554795 551.04225369 811.56526211 C534.98716339 811.58459412 518.93208587 811.59023005 502.8769853 811.59137623 C490.47605055 811.59229574 478.07512079 811.59641464 465.67418766 811.60277748 C462.10299542 811.60457261 458.53180317 811.60635224 454.96061093 811.60812724 C454.07276604 811.60856933 453.18492115 811.60901143 452.27017187 811.60946692 C427.29945087 811.62177387 402.3287316 811.62966821 377.35800743 811.62878036 C376.41673146 811.62874921 375.47545549 811.62871805 374.505656 811.62868595 C369.73502119 811.62851974 364.96438638 811.62832166 360.19375157 811.62811653 C358.77258894 811.6280567 358.77258894 811.6280567 357.32271595 811.62799565 C355.4067574 811.62791478 353.49079885 811.62783118 351.5748403 811.62774487 C321.77296991 811.62651966 291.97114505 811.64152759 262.16928768 811.66889 C228.67583749 811.69962925 195.18241721 811.71682136 161.68895203 811.71496356 C158.1155593 811.7148143 154.54216657 811.71471688 150.96877384 811.71465492 C150.08893503 811.71463161 149.20909622 811.71460831 148.30259562 811.71458429 C134.16000423 811.71452281 120.01745245 811.72728014 105.87487282 811.74451945 C91.65362754 811.76149574 77.43244004 811.76343418 63.21119022 811.75030081 C54.76964408 811.74292477 46.32827378 811.74652918 37.88674637 811.76618549 C32.23850395 811.77822282 26.59038829 811.77555295 20.94215158 811.76124449 C17.73013913 811.75351285 14.51853074 811.75407972 11.30653017 811.7681592 C-20.7415625 811.89928659 -46.44557187 803.53617739 -69.83437443 780.88226891 C-87.15062648 763.12824644 -97.50678499 738.91590414 -97.40414333 714.09477711 C-97.40764941 713.00946102 -97.41115548 711.92414493 -97.4147678 710.80594048 C-97.42406189 707.17397808 -97.41916353 703.54217673 -97.41429996 699.91020775 C-97.41803723 697.27794022 -97.42255951 694.64568454 -97.42803061 692.01342112 C-97.43831662 686.29264431 -97.44117684 680.57190133 -97.43911839 674.85111618 C-97.43606474 666.34366853 -97.44440047 657.83625823 -97.45486764 649.32881785 C-97.47419972 633.24840609 -97.47983558 617.1680071 -97.48098175 601.08758508 C-97.48190126 588.66710418 -97.48602015 576.24662827 -97.492383 563.82614899 C-97.49417813 560.24933977 -97.49595776 556.67253054 -97.49773276 553.0957213 C-97.49817485 552.20648021 -97.49861695 551.31723911 -97.49907244 550.40105131 C-97.51137941 525.39103446 -97.51927373 500.38101935 -97.51838589 475.37099934 C-97.51835473 474.4282405 -97.51832357 473.48548167 -97.51829147 472.51415439 C-97.51812526 467.73600303 -97.51792718 462.95785167 -97.51772206 458.17970031 C-97.51766222 456.75629827 -97.51766222 456.75629827 -97.51760118 455.30414063 C-97.5175203 453.38516299 -97.5174367 451.46618535 -97.51735039 449.54720771 C-97.51612518 419.69834469 -97.53113314 389.84952712 -97.55849552 360.00067711 C-97.58923468 326.45448921 -97.60642689 292.90833118 -97.60456908 259.36212832 C-97.60441982 255.78311861 -97.6043224 252.2041089 -97.60426044 248.62509918 C-97.60423714 247.74387722 -97.60421383 246.86265526 -97.60418981 245.9547296 C-97.60412833 231.78982224 -97.61688574 217.62495442 -97.63412497 203.46005881 C-97.65110115 189.21640941 -97.65303979 174.97281769 -97.63990633 160.72916376 C-97.63253022 152.27428701 -97.63613493 143.81958583 -97.65579101 135.36472778 C-97.66782815 129.70759955 -97.66515869 124.05059789 -97.65085002 118.39347536 C-97.64311821 115.17638792 -97.64368559 111.95970391 -97.65776472 108.74262833 C-97.78874157 76.68002034 -89.4375263 50.9706958 -66.77187443 27.56976891 C-49.02420977 10.2597179 -24.81371808 -0.1027769 0 0 Z " fill="#656565" transform="translate(97.14687442779541,-0.25726890563964844)"/>
<path d="M0 0 C8.25 0 16.5 0 25 0 C25 8.58 25 17.16 25 26 C33.58 26 42.16 26 51 26 C51 17.42 51 8.84 51 0 C67.83 0 84.66 0 102 0 C102 8.58 102 17.16 102 26 C118.83 26 135.66 26 153 26 C153 34.25 153 42.5 153 51 C161.25 51 169.5 51 178 51 C178 59.25 178 67.5 178 76 C186.58 76 195.16 76 204 76 C204 67.75 204 59.5 204 51 C212.25 51 220.5 51 229 51 C229 76.08 229 101.16 229 127 C237.25 127 245.5 127 254 127 C254 143.83 254 160.66 254 178 C262.58 178 271.16 178 280 178 C280 211.66 280 245.32 280 280 C271.42 280 262.84 280 254 280 C254 288.58 254 297.16 254 306 C262.58 306 271.16 306 280 306 C280 331.08 280 356.16 280 382 C271.42 382 262.84 382 254 382 C254 390.25 254 398.5 254 407 C228.92 407 203.84 407 178 407 C178 415.58 178 424.16 178 433 C169.75 433 161.5 433 153 433 C153 424.42 153 415.84 153 407 C127.59 407 102.18 407 76 407 C76 398.75 76 390.5 76 382 C67.75 382 59.5 382 51 382 C51 373.75 51 365.5 51 357 C42.42 357 33.84 357 25 357 C25 348.42 25 339.84 25 331 C16.75 331 8.5 331 0 331 C0 339.58 0 348.16 0 357 C-8.58 357 -17.16 357 -26 357 C-26 407.16 -26 457.32 -26 509 C-17.42 509 -8.84 509 0 509 C0 517.58 0 526.16 0 535 C8.25 535 16.5 535 25 535 C25 543.25 25 551.5 25 560 C41.83 560 58.66 560 76 560 C76 568.58 76 577.16 76 586 C92.83 586 109.66 586 127 586 C127 594.25 127 602.5 127 611 C101.92 611 76.84 611 51 611 C51 619.58 51 628.16 51 637 C59.25 637 67.5 637 76 637 C76 645.25 76 653.5 76 662 C84.58 662 93.16 662 102 662 C102 678.83 102 695.66 102 713 C93.42 713 84.84 713 76 713 C76 704.42 76 695.84 76 687 C59.17 687 42.34 687 25 687 C25 678.75 25 670.5 25 662 C16.75 662 8.5 662 0 662 C0 653.75 0 645.5 0 637 C-16.83 637 -33.66 637 -51 637 C-51 628.42 -51 619.84 -51 611 C-59.25 611 -67.5 611 -76 611 C-76 619.58 -76 628.16 -76 637 C-84.58 637 -93.16 637 -102 637 C-102 645.25 -102 653.5 -102 662 C-110.25 662 -118.5 662 -127 662 C-127 670.25 -127 678.5 -127 687 C-143.83 687 -160.66 687 -178 687 C-178 695.58 -178 704.16 -178 713 C-186.58 713 -195.16 713 -204 713 C-204 696.17 -204 679.34 -204 662 C-195.42 662 -186.84 662 -178 662 C-178 653.75 -178 645.5 -178 637 C-169.75 637 -161.5 637 -153 637 C-153 628.42 -153 619.84 -153 611 C-178.08 611 -203.16 611 -229 611 C-229 619.58 -229 628.16 -229 637 C-254.41 637 -279.82 637 -306 637 C-306 628.42 -306 619.84 -306 611 C-297.42 611 -288.84 611 -280 611 C-280 602.75 -280 594.5 -280 586 C-263.17 586 -246.34 586 -229 586 C-229 577.42 -229 568.84 -229 560 C-212.17 560 -195.34 560 -178 560 C-178 551.75 -178 543.5 -178 535 C-169.75 535 -161.5 535 -153 535 C-153 526.42 -153 517.84 -153 509 C-144.42 509 -135.84 509 -127 509 C-127 458.84 -127 408.68 -127 357 C-135.58 357 -144.16 357 -153 357 C-153 365.25 -153 373.5 -153 382 C-178.08 382 -203.16 382 -229 382 C-229 373.75 -229 365.5 -229 357 C-245.83 357 -262.66 357 -280 357 C-280 373.5 -280 390 -280 407 C-288.58 407 -297.16 407 -306 407 C-306 398.75 -306 390.5 -306 382 C-314.25 382 -322.5 382 -331 382 C-331 373.75 -331 365.5 -331 357 C-339.58 357 -348.16 357 -357 357 C-357 348.42 -357 339.84 -357 331 C-365.25 331 -373.5 331 -382 331 C-382 322.75 -382 314.5 -382 306 C-390.25 306 -398.5 306 -407 306 C-407 297.42 -407 288.84 -407 280 C-398.75 280 -390.5 280 -382 280 C-382 271.75 -382 263.5 -382 255 C-398.83 255 -415.66 255 -433 255 C-433 229.59 -433 204.18 -433 178 C-441.25 178 -449.5 178 -458 178 C-458 152.92 -458 127.84 -458 102 C-449.75 102 -441.5 102 -433 102 C-433 93.42 -433 84.84 -433 76 C-424.42 76 -415.84 76 -407 76 C-407 84.58 -407 93.16 -407 102 C-398.75 102 -390.5 102 -382 102 C-382 85.17 -382 68.34 -382 51 C-356.92 51 -331.84 51 -306 51 C-306 59.25 -306 67.5 -306 76 C-297.42 76 -288.84 76 -280 76 C-280 67.75 -280 59.5 -280 51 C-263.17 51 -246.34 51 -229 51 C-229 42.75 -229 34.5 -229 26 C-220.75 26 -212.5 26 -204 26 C-204 34.25 -204 42.5 -204 51 C-195.42 51 -186.84 51 -178 51 C-178 42.75 -178 34.5 -178 26 C-152.92 26 -127.84 26 -102 26 C-102 34.25 -102 42.5 -102 51 C-93.42 51 -84.84 51 -76 51 C-76 42.75 -76 34.5 -76 26 C-67.75 26 -59.5 26 -51 26 C-51 34.25 -51 42.5 -51 51 C-42.75 51 -34.5 51 -26 51 C-26 42.75 -26 34.5 -26 26 C-17.42 26 -8.84 26 0 26 C0 17.42 0 8.84 0 0 Z " fill="#3F1111" transform="translate(482,49)"/>
<path d="M0 0 C8.25 0 16.5 0 25 0 C25 8.58 25 17.16 25 26 C33.58 26 42.16 26 51 26 C51 34.25 51 42.5 51 51 C42.42 51 33.84 51 25 51 C25 76.41 25 101.82 25 128 C33.58 128 42.16 128 51 128 C51 119.42 51 110.84 51 102 C59.25 102 67.5 102 76 102 C76 76.92 76 51.84 76 26 C84.25 26 92.5 26 101 26 C101 17.42 101 8.84 101 0 C109.58 0 118.16 0 127 0 C127 25.41 127 50.82 127 77 C135.25 77 143.5 77 152 77 C152 93.83 152 110.66 152 128 C168.83 128 185.66 128 203 128 C203 136.25 203 144.5 203 153 C186.17 153 169.34 153 152 153 C152 161.58 152 170.16 152 179 C143.75 179 135.5 179 127 179 C127 212.66 127 246.32 127 281 C118.42 281 109.84 281 101 281 C101 331.16 101 381.32 101 433 C109.58 433 118.16 433 127 433 C127 441.58 127 450.16 127 459 C135.25 459 143.5 459 152 459 C152 467.25 152 475.5 152 484 C168.83 484 185.66 484 203 484 C203 492.58 203 501.16 203 510 C219.83 510 236.66 510 254 510 C254 518.25 254 526.5 254 535 C228.92 535 203.84 535 178 535 C178 543.58 178 552.16 178 561 C186.25 561 194.5 561 203 561 C203 569.25 203 577.5 203 586 C211.58 586 220.16 586 229 586 C229 602.83 229 619.66 229 637 C220.42 637 211.84 637 203 637 C203 628.42 203 619.84 203 611 C186.17 611 169.34 611 152 611 C152 602.75 152 594.5 152 586 C143.75 586 135.5 586 127 586 C127 577.75 127 569.5 127 561 C110.17 561 93.34 561 76 561 C76 552.42 76 543.84 76 535 C67.75 535 59.5 535 51 535 C51 543.58 51 552.16 51 561 C42.42 561 33.84 561 25 561 C25 569.25 25 577.5 25 586 C16.75 586 8.5 586 0 586 C0 594.25 0 602.5 0 611 C-16.83 611 -33.66 611 -51 611 C-51 619.58 -51 628.16 -51 637 C-59.58 637 -68.16 637 -77 637 C-77 620.17 -77 603.34 -77 586 C-68.42 586 -59.84 586 -51 586 C-51 577.75 -51 569.5 -51 561 C-42.75 561 -34.5 561 -26 561 C-26 552.42 -26 543.84 -26 535 C-51.08 535 -76.16 535 -102 535 C-102 543.58 -102 552.16 -102 561 C-127.41 561 -152.82 561 -179 561 C-179 552.42 -179 543.84 -179 535 C-170.42 535 -161.84 535 -153 535 C-153 526.75 -153 518.5 -153 510 C-136.17 510 -119.34 510 -102 510 C-102 501.42 -102 492.84 -102 484 C-85.17 484 -68.34 484 -51 484 C-51 475.75 -51 467.5 -51 459 C-42.75 459 -34.5 459 -26 459 C-26 450.42 -26 441.84 -26 433 C-17.42 433 -8.84 433 0 433 C0 382.84 0 332.68 0 281 C-25.41 281 -50.82 281 -77 281 C-77 264.17 -77 247.34 -77 230 C-85.25 230 -93.5 230 -102 230 C-102 238.25 -102 246.5 -102 255 C-110.58 255 -119.16 255 -128 255 C-128 229.92 -128 204.84 -128 179 C-144.83 179 -161.66 179 -179 179 C-179 153.59 -179 128.18 -179 102 C-195.83 102 -212.66 102 -230 102 C-230 93.75 -230 85.5 -230 77 C-255.08 77 -280.16 77 -306 77 C-306 68.42 -306 59.84 -306 51 C-272.34 51 -238.68 51 -204 51 C-204 59.58 -204 68.16 -204 77 C-178.92 77 -153.84 77 -128 77 C-128 85.25 -128 93.5 -128 102 C-102.59 102 -77.18 102 -51 102 C-51 85.17 -51 68.34 -51 51 C-42.75 51 -34.5 51 -26 51 C-26 59.58 -26 68.16 -26 77 C-17.42 77 -8.84 77 0 77 C0 51.59 0 26.18 0 0 Z " fill="#1B1717" transform="translate(355,125)"/>
<path d="M0 0 C8.58 0 17.16 0 26 0 C26 16.83 26 33.66 26 51 C34.25 51 42.5 51 51 51 C51 67.83 51 84.66 51 102 C42.75 102 34.5 102 26 102 C26 118.83 26 135.66 26 153 C9.17 153 -7.66 153 -25 153 C-25 136.17 -25 119.34 -25 102 C-33.58 102 -42.16 102 -51 102 C-51 93.75 -51 85.5 -51 77 C-59.25 77 -67.5 77 -76 77 C-76 68.42 -76 59.84 -76 51 C-50.92 51 -25.84 51 0 51 C0 34.17 0 17.34 0 0 Z " fill="#3E1111" transform="translate(660,176)"/>
<path d="M0 0 C16.83 0 33.66 0 51 0 C51 8.25 51 16.5 51 25 C59.25 25 67.5 25 76 25 C76 33.58 76 42.16 76 51 C84.58 51 93.16 51 102 51 C102 59.25 102 67.5 102 76 C93.42 76 84.84 76 76 76 C76 84.58 76 93.16 76 102 C59.17 102 42.34 102 25 102 C25 93.42 25 84.84 25 76 C16.75 76 8.5 76 0 76 C0 50.92 0 25.84 0 0 Z " fill="#3F1111" transform="translate(482,304)"/>
<path d="M0 0 C25.41 0 50.82 0 77 0 C77 8.25 77 16.5 77 25 C85.25 25 93.5 25 102 25 C102 33.58 102 42.16 102 51 C93.75 51 85.5 51 77 51 C77 59.25 77 67.5 77 76 C68.42 76 59.84 76 51 76 C51 67.75 51 59.5 51 51 C34.17 51 17.34 51 0 51 C0 34.17 0 17.34 0 0 Z " fill="#3F1111" transform="translate(227,253)"/>
<path d="M0 0 C16.83 0 33.66 0 51 0 C51 16.83 51 33.66 51 51 C59.58 51 68.16 51 77 51 C77 59.25 77 67.5 77 76 C60.17 76 43.34 76 26 76 C26 59.17 26 42.34 26 25 C17.42 25 8.84 25 0 25 C0 16.75 0 8.5 0 0 Z " fill="#1B1818" transform="translate(609,253)"/>
<path d="M0 0 C8.58 0 17.16 0 26 0 C26 25.41 26 50.82 26 77 C17.42 77 8.84 77 0 77 C0 68.42 0 59.84 0 51 C-8.25 51 -16.5 51 -25 51 C-25 42.75 -25 34.5 -25 26 C-16.75 26 -8.5 26 0 26 C0 17.42 0 8.84 0 0 Z " fill="#3F1111" transform="translate(329,329)"/>
<path d="M0 0 C8.25 0 16.5 0 25 0 C25 8.25 25 16.5 25 25 C33.58 25 42.16 25 51 25 C51 33.58 51 42.16 51 51 C42.42 51 33.84 51 25 51 C25 59.25 25 67.5 25 76 C16.75 76 8.5 76 0 76 C0 50.92 0 25.84 0 0 Z " fill="#1B1818" transform="translate(533,151)"/>
<path d="M0 0 C16.83 0 33.66 0 51 0 C51 8.25 51 16.5 51 25 C59.25 25 67.5 25 76 25 C76 33.58 76 42.16 76 51 C59.5 51 43 51 26 51 C26 42.42 26 33.84 26 25 C17.42 25 8.84 25 0 25 C0 16.75 0 8.5 0 0 Z " fill="#511616" transform="translate(660,355)"/>
<path d="M0 0 C8.25 0 16.5 0 25 0 C25 8.58 25 17.16 25 26 C33.58 26 42.16 26 51 26 C51 34.25 51 42.5 51 51 C42.42 51 33.84 51 25 51 C25 59.58 25 68.16 25 77 C16.75 77 8.5 77 0 77 C0 51.59 0 26.18 0 0 Z " fill="#1B1818" transform="translate(533,329)"/>
<path d="M0 0 C16.83 0 33.66 0 51 0 C51 16.83 51 33.66 51 51 C42.42 51 33.84 51 25 51 C25 42.75 25 34.5 25 26 C16.75 26 8.5 26 0 26 C0 17.42 0 8.84 0 0 Z " fill="#4E1717" transform="translate(584,380)"/>
<path d="M0 0 C8.25 0 16.5 0 25 0 C25 16.83 25 33.66 25 51 C8.17 51 -8.66 51 -26 51 C-26 42.75 -26 34.5 -26 26 C-17.42 26 -8.84 26 0 26 C0 17.42 0 8.84 0 0 Z " fill="#521515" transform="translate(635,176)"/>
<path d="M0 0 C25.08 0 50.16 0 76 0 C76 8.25 76 16.5 76 25 C50.92 25 25.84 25 0 25 C0 16.75 0 8.5 0 0 Z " fill="#1B1818" transform="translate(151,151)"/>
<path d="M0 0 C25.08 0 50.16 0 76 0 C76 8.25 76 16.5 76 25 C50.92 25 25.84 25 0 25 C0 16.75 0 8.5 0 0 Z " fill="#3F1111" transform="translate(100,100)"/>
<path d="M0 0 C8.58 0 17.16 0 26 0 C26 16.83 26 33.66 26 51 C17.42 51 8.84 51 0 51 C0 34.17 0 17.34 0 0 Z " fill="#3F1111" transform="translate(507,355)"/>
<path d="M0 0 C8.58 0 17.16 0 26 0 C26 16.83 26 33.66 26 51 C17.42 51 8.84 51 0 51 C0 34.17 0 17.34 0 0 Z " fill="#4E1717" transform="translate(125,278)"/>
<path d="M0 0 C8.58 0 17.16 0 26 0 C26 16.83 26 33.66 26 51 C17.42 51 8.84 51 0 51 C0 34.17 0 17.34 0 0 Z " fill="#1B1818" transform="translate(660,176)"/>
<path d="M0 0 C16.83 0 33.66 0 51 0 C51 8.58 51 17.16 51 26 C34.17 26 17.34 26 0 26 C0 17.42 0 8.84 0 0 Z " fill="#1B1818" transform="translate(253,125)"/>
<path d="M0 0 C8.58 0 17.16 0 26 0 C26 16.83 26 33.66 26 51 C17.42 51 8.84 51 0 51 C0 34.17 0 17.34 0 0 Z " fill="#3F1111" transform="translate(380,49)"/>
<path d="M0 0 C16.83 0 33.66 0 51 0 C51 8.25 51 16.5 51 25 C34.17 25 17.34 25 0 25 C0 16.75 0 8.5 0 0 Z " fill="#3F1111" transform="translate(660,533)"/>
<path d="M0 0 C16.83 0 33.66 0 51 0 C51 8.25 51 16.5 51 25 C34.17 25 17.34 25 0 25 C0 16.75 0 8.5 0 0 Z " fill="#4D1717" transform="translate(533,100)"/>
<path d="M0 0 C16.83 0 33.66 0 51 0 C51 8.25 51 16.5 51 25 C34.17 25 17.34 25 0 25 C0 16.75 0 8.5 0 0 Z " fill="#1B1818" transform="translate(482,100)"/>
<path d="M0 0 C8.58 0 17.16 0 26 0 C26 8.58 26 17.16 26 26 C17.42 26 8.84 26 0 26 C0 17.42 0 8.84 0 0 Z " fill="#4E1717" transform="translate(736,507)"/>
<path d="M0 0 C8.58 0 17.16 0 26 0 C26 8.58 26 17.16 26 26 C17.42 26 8.84 26 0 26 C0 17.42 0 8.84 0 0 Z " fill="#3F1111" transform="translate(736,456)"/>
<path d="M0 0 C8.58 0 17.16 0 26 0 C26 8.58 26 17.16 26 26 C17.42 26 8.84 26 0 26 C0 17.42 0 8.84 0 0 Z " fill="#3F1111" transform="translate(278,456)"/>
<path d="M0 0 C8.58 0 17.16 0 26 0 C26 8.58 26 17.16 26 26 C17.42 26 8.84 26 0 26 C0 17.42 0 8.84 0 0 Z " fill="#666666" transform="translate(176,380)"/>
<path d="M0 0 C8.58 0 17.16 0 26 0 C26 8.58 26 17.16 26 26 C17.42 26 8.84 26 0 26 C0 17.42 0 8.84 0 0 Z " fill="#4E1717" transform="translate(176,329)"/>
<path d="M0 0 C8.58 0 17.16 0 26 0 C26 8.58 26 17.16 26 26 C17.42 26 8.84 26 0 26 C0 17.42 0 8.84 0 0 Z " fill="#1B1818" transform="translate(558,278)"/>
<path d="M0 0 C8.58 0 17.16 0 26 0 C26 8.58 26 17.16 26 26 C17.42 26 8.84 26 0 26 C0 17.42 0 8.84 0 0 Z " fill="#3F1111" transform="translate(329,227)"/>
<path d="M0 0 C8.58 0 17.16 0 26 0 C26 8.58 26 17.16 26 26 C17.42 26 8.84 26 0 26 C0 17.42 0 8.84 0 0 Z " fill="#4E1717" transform="translate(227,176)"/>
<path d="M0 0 C8.58 0 17.16 0 26 0 C26 8.58 26 17.16 26 26 C17.42 26 8.84 26 0 26 C0 17.42 0 8.84 0 0 Z " fill="#1B1818" transform="translate(609,125)"/>
<path d="M0 0 C8.25 0 16.5 0 25 0 C25 8.58 25 17.16 25 26 C16.75 26 8.5 26 0 26 C0 17.42 0 8.84 0 0 Z " fill="#3F1111" transform="translate(711,609)"/>
<path d="M0 0 C8.58 0 17.16 0 26 0 C26 8.25 26 16.5 26 25 C17.42 25 8.84 25 0 25 C0 16.75 0 8.5 0 0 Z " fill="#4E1717" transform="translate(609,533)"/>
<path d="M0 0 C8.58 0 17.16 0 26 0 C26 8.25 26 16.5 26 25 C17.42 25 8.84 25 0 25 C0 16.75 0 8.5 0 0 Z " fill="#551515" transform="translate(176,533)"/>
<path d="M0 0 C8.58 0 17.16 0 26 0 C26 8.25 26 16.5 26 25 C17.42 25 8.84 25 0 25 C0 16.75 0 8.5 0 0 Z " fill="#551515" transform="translate(660,482)"/>
<path d="M0 0 C8.58 0 17.16 0 26 0 C26 8.25 26 16.5 26 25 C17.42 25 8.84 25 0 25 C0 16.75 0 8.5 0 0 Z " fill="#4E1717" transform="translate(507,482)"/>
<path d="M0 0 C8.58 0 17.16 0 26 0 C26 8.25 26 16.5 26 25 C17.42 25 8.84 25 0 25 C0 16.75 0 8.5 0 0 Z " fill="#3F1111" transform="translate(227,482)"/>
<path d="M0 0 C8.58 0 17.16 0 26 0 C26 8.25 26 16.5 26 25 C17.42 25 8.84 25 0 25 C0 16.75 0 8.5 0 0 Z " fill="#551515" transform="translate(660,406)"/>
<path d="M0 0 C8.58 0 17.16 0 26 0 C26 8.25 26 16.5 26 25 C17.42 25 8.84 25 0 25 C0 16.75 0 8.5 0 0 Z " fill="#3F1111" transform="translate(49,406)"/>
<path d="M0 0 C8.25 0 16.5 0 25 0 C25 8.58 25 17.16 25 26 C16.75 26 8.5 26 0 26 C0 17.42 0 8.84 0 0 Z " fill="#1B1818" transform="translate(635,380)"/>
<path d="M0 0 C8.58 0 17.16 0 26 0 C26 8.25 26 16.5 26 25 C17.42 25 8.84 25 0 25 C0 16.75 0 8.5 0 0 Z " fill="#4E1717" transform="translate(507,355)"/>
<path d="M0 0 C8.25 0 16.5 0 25 0 C25 8.58 25 17.16 25 26 C16.75 26 8.5 26 0 26 C0 17.42 0 8.84 0 0 Z " fill="#3F1111" transform="translate(762,329)"/>
<path d="M0 0 C8.25 0 16.5 0 25 0 C25 8.58 25 17.16 25 26 C16.75 26 8.5 26 0 26 C0 17.42 0 8.84 0 0 Z " fill="#1B1818" transform="translate(584,329)"/>
<path d="M0 0 C8.25 0 16.5 0 25 0 C25 8.58 25 17.16 25 26 C16.75 26 8.5 26 0 26 C0 17.42 0 8.84 0 0 Z " fill="#3F1111" transform="translate(24,329)"/>
<path d="M0 0 C8.58 0 17.16 0 26 0 C26 8.25 26 16.5 26 25 C17.42 25 8.84 25 0 25 C0 16.75 0 8.5 0 0 Z " fill="#1B1818" transform="translate(507,304)"/>
<path d="M0 0 C8.25 0 16.5 0 25 0 C25 8.58 25 17.16 25 26 C16.75 26 8.5 26 0 26 C0 17.42 0 8.84 0 0 Z " fill="#4E1717" transform="translate(686,278)"/>
<path d="M0 0 C8.25 0 16.5 0 25 0 C25 8.58 25 17.16 25 26 C16.75 26 8.5 26 0 26 C0 17.42 0 8.84 0 0 Z " fill="#4D1717" transform="translate(584,278)"/>
<path d="M0 0 C8.25 0 16.5 0 25 0 C25 8.58 25 17.16 25 26 C16.75 26 8.5 26 0 26 C0 17.42 0 8.84 0 0 Z " fill="#1B1818" transform="translate(686,227)"/>
<path d="M0 0 C8.25 0 16.5 0 25 0 C25 8.58 25 17.16 25 26 C16.75 26 8.5 26 0 26 C0 17.42 0 8.84 0 0 Z " fill="#1B1818" transform="translate(584,227)"/>
<path d="M0 0 C8.25 0 16.5 0 25 0 C25 8.58 25 17.16 25 26 C16.75 26 8.5 26 0 26 C0 17.42 0 8.84 0 0 Z " fill="#551515" transform="translate(533,227)"/>
<path d="M0 0 C8.25 0 16.5 0 25 0 C25 8.58 25 17.16 25 26 C16.75 26 8.5 26 0 26 C0 17.42 0 8.84 0 0 Z " fill="#4E1717" transform="translate(75,227)"/>
<path d="M0 0 C8.58 0 17.16 0 26 0 C26 8.25 26 16.5 26 25 C17.42 25 8.84 25 0 25 C0 16.75 0 8.5 0 0 Z " fill="#541515" transform="translate(558,202)"/>
<path d="M0 0 C8.58 0 17.16 0 26 0 C26 8.25 26 16.5 26 25 C17.42 25 8.84 25 0 25 C0 16.75 0 8.5 0 0 Z " fill="#3F1111" transform="translate(456,202)"/>
<path d="M0 0 C8.58 0 17.16 0 26 0 C26 8.25 26 16.5 26 25 C17.42 25 8.84 25 0 25 C0 16.75 0 8.5 0 0 Z " fill="#551515" transform="translate(380,202)"/>
<path d="M0 0 C8.25 0 16.5 0 25 0 C25 8.58 25 17.16 25 26 C16.75 26 8.5 26 0 26 C0 17.42 0 8.84 0 0 Z " fill="#4D1717" transform="translate(686,176)"/>
<path d="M0 0 C8.58 0 17.16 0 26 0 C26 8.25 26 16.5 26 25 C17.42 25 8.84 25 0 25 C0 16.75 0 8.5 0 0 Z " fill="#541515" transform="translate(609,151)"/>
<path d="M0 0 C8.58 0 17.16 0 26 0 C26 8.25 26 16.5 26 25 C17.42 25 8.84 25 0 25 C0 16.75 0 8.5 0 0 Z " fill="#4E1717" transform="translate(507,151)"/>
<path d="M0 0 C8.58 0 17.16 0 26 0 C26 8.25 26 16.5 26 25 C17.42 25 8.84 25 0 25 C0 16.75 0 8.5 0 0 Z " fill="#4E1717" transform="translate(278,151)"/>
<path d="M0 0 C8.58 0 17.16 0 26 0 C26 8.25 26 16.5 26 25 C17.42 25 8.84 25 0 25 C0 16.75 0 8.5 0 0 Z " fill="#551515" transform="translate(49,151)"/>
<path d="M0 0 C8.25 0 16.5 0 25 0 C25 8.58 25 17.16 25 26 C16.75 26 8.5 26 0 26 C0 17.42 0 8.84 0 0 Z " fill="#1B1818" transform="translate(406,125)"/>
<path d="M0 0 C8.25 0 16.5 0 25 0 C25 8.58 25 17.16 25 26 C16.75 26 8.5 26 0 26 C0 17.42 0 8.84 0 0 Z " fill="#4E1717" transform="translate(304,125)"/>
<path d="M0 0 C8.58 0 17.16 0 26 0 C26 8.25 26 16.5 26 25 C17.42 25 8.84 25 0 25 C0 16.75 0 8.5 0 0 Z " fill="#1B1818" transform="translate(329,100)"/>
<path d="M0 0 C8.58 0 17.16 0 26 0 C26 8.25 26 16.5 26 25 C17.42 25 8.84 25 0 25 C0 16.75 0 8.5 0 0 Z " fill="#666565" transform="translate(380,75)"/>
<path d="M0 0 C8.58 0 17.16 0 26 0 C26 8.25 26 16.5 26 25 C17.42 25 8.84 25 0 25 C0 16.75 0 8.5 0 0 Z " fill="#3F1111" transform="translate(176,75)"/>
<path d="M0 0 C8.25 0 16.5 0 25 0 C25 8.58 25 17.16 25 26 C16.75 26 8.5 26 0 26 C0 17.42 0 8.84 0 0 Z " fill="#3F1111" transform="translate(635,49)"/>
<path d="M0 0 C8.25 0 16.5 0 25 0 C25 8.25 25 16.5 25 25 C16.75 25 8.5 25 0 25 C0 16.75 0 8.5 0 0 Z " fill="#4E1717" transform="translate(100,533)"/>
<path d="M0 0 C8.25 0 16.5 0 25 0 C25 8.25 25 16.5 25 25 C16.75 25 8.5 25 0 25 C0 16.75 0 8.5 0 0 Z " fill="#3F1111" transform="translate(584,482)"/>
<path d="M0 0 C8.25 0 16.5 0 25 0 C25 8.25 25 16.5 25 25 C16.75 25 8.5 25 0 25 C0 16.75 0 8.5 0 0 Z " fill="#4E1717" transform="translate(151,482)"/>
<path d="M0 0 C8.25 0 16.5 0 25 0 C25 8.25 25 16.5 25 25 C16.75 25 8.5 25 0 25 C0 16.75 0 8.5 0 0 Z " fill="#3F1111" transform="translate(75,482)"/>
<path d="M0 0 C8.25 0 16.5 0 25 0 C25 8.25 25 16.5 25 25 C16.75 25 8.5 25 0 25 C0 16.75 0 8.5 0 0 Z " fill="#3F1111" transform="translate(100,431)"/>
<path d="M0 0 C8.25 0 16.5 0 25 0 C25 8.25 25 16.5 25 25 C16.75 25 8.5 25 0 25 C0 16.75 0 8.5 0 0 Z " fill="#3F1111" transform="translate(533,406)"/>
<path d="M0 0 C8.25 0 16.5 0 25 0 C25 8.25 25 16.5 25 25 C16.75 25 8.5 25 0 25 C0 16.75 0 8.5 0 0 Z " fill="#1B1818" transform="translate(253,406)"/>
<path d="M0 0 C8.25 0 16.5 0 25 0 C25 8.25 25 16.5 25 25 C16.75 25 8.5 25 0 25 C0 16.75 0 8.5 0 0 Z " fill="#1B1818" transform="translate(151,355)"/>
<path d="M0 0 C8.25 0 16.5 0 25 0 C25 8.25 25 16.5 25 25 C16.75 25 8.5 25 0 25 C0 16.75 0 8.5 0 0 Z " fill="#4E1717" transform="translate(711,304)"/>
<path d="M0 0 C8.25 0 16.5 0 25 0 C25 8.25 25 16.5 25 25 C16.75 25 8.5 25 0 25 C0 16.75 0 8.5 0 0 Z " fill="#4D1717" transform="translate(533,304)"/>
<path d="M0 0 C8.25 0 16.5 0 25 0 C25 8.25 25 16.5 25 25 C16.75 25 8.5 25 0 25 C0 16.75 0 8.5 0 0 Z " fill="#551515" transform="translate(202,304)"/>
<path d="M0 0 C8.25 0 16.5 0 25 0 C25 8.25 25 16.5 25 25 C16.75 25 8.5 25 0 25 C0 16.75 0 8.5 0 0 Z " fill="#1B1818" transform="translate(711,253)"/>
<path d="M0 0 C8.25 0 16.5 0 25 0 C25 8.25 25 16.5 25 25 C16.75 25 8.5 25 0 25 C0 16.75 0 8.5 0 0 Z " fill="#3F1111" transform="translate(482,253)"/>
<path d="M0 0 C8.25 0 16.5 0 25 0 C25 8.25 25 16.5 25 25 C16.75 25 8.5 25 0 25 C0 16.75 0 8.5 0 0 Z " fill="#551515" transform="translate(253,253)"/>
<path d="M0 0 C8.25 0 16.5 0 25 0 C25 8.25 25 16.5 25 25 C16.75 25 8.5 25 0 25 C0 16.75 0 8.5 0 0 Z " fill="#4E1717" transform="translate(100,253)"/>
<path d="M0 0 C8.25 0 16.5 0 25 0 C25 8.25 25 16.5 25 25 C16.75 25 8.5 25 0 25 C0 16.75 0 8.5 0 0 Z " fill="#3F1111" transform="translate(762,202)"/>
<path d="M0 0 C8.25 0 16.5 0 25 0 C25 8.25 25 16.5 25 25 C16.75 25 8.5 25 0 25 C0 16.75 0 8.5 0 0 Z " fill="#4E1717" transform="translate(253,202)"/>
<path d="M0 0 C8.25 0 16.5 0 25 0 C25 8.25 25 16.5 25 25 C16.75 25 8.5 25 0 25 C0 16.75 0 8.5 0 0 Z " fill="#1B1818" transform="translate(635,151)"/>
<path d="M0 0 C8.25 0 16.5 0 25 0 C25 8.25 25 16.5 25 25 C16.75 25 8.5 25 0 25 C0 16.75 0 8.5 0 0 Z " fill="#1B1818" transform="translate(584,151)"/>
<path d="M0 0 C8.25 0 16.5 0 25 0 C25 8.25 25 16.5 25 25 C16.75 25 8.5 25 0 25 C0 16.75 0 8.5 0 0 Z " fill="#3F1111" transform="translate(406,151)"/>
<path d="M0 0 C8.25 0 16.5 0 25 0 C25 8.25 25 16.5 25 25 C16.75 25 8.5 25 0 25 C0 16.75 0 8.5 0 0 Z " fill="#4E1717" transform="translate(584,75)"/>
<path d="M0 0 C8.25 0 16.5 0 25 0 C25 8.25 25 16.5 25 25 C16.75 25 8.5 25 0 25 C0 16.75 0 8.5 0 0 Z " fill="#3F1111" transform="translate(75,75)"/>
</svg>
