<?xml version="1.0" standalone="no"?>
<!DOCTYPE svg PUBLIC "-//W3C//DTD SVG 20010904//EN"
 "http://www.w3.org/TR/2001/REC-SVG-20010904/DTD/svg10.dtd">
<svg version="1.0" xmlns="http://www.w3.org/2000/svg"
 width="810.000000pt" height="811.000000pt" viewBox="0 0 810.000000 811.000000"
 preserveAspectRatio="xMidYMid meet">

<g transform="translate(0.000000,811.000000) scale(0.100000,-0.100000)"
fill="#000000" stroke="none">
<path d="M885 8099 c-103 -12 -237 -54 -336 -105 -260 -134 -436 -355 -516
-649 l-28 -100 0 -3190 0 -3190 28 -100 c63 -230 190 -423 367 -557 89 -68
245 -143 365 -176 l100 -27 3185 0 3185 0 100 27 c368 101 631 363 732 733
l28 100 0 3190 0 3190 -28 100 c-63 230 -190 423 -367 557 -89 68 -245 143
-365 176 l-100 27 -3140 1 c-1727 1 -3171 -2 -3210 -7z"/>
</g>
</svg>
